<?xml version="1.0" standalone="no"?>
<!DOCTYPE svg PUBLIC "-//W3C//DTD SVG 20010904//EN"
 "http://www.w3.org/TR/2001/REC-SVG-20010904/DTD/svg10.dtd">
<svg version="1.0" xmlns="http://www.w3.org/2000/svg"
 width="700.000000pt" height="700.000000pt" viewBox="0 0 700.000000 700.000000"
 preserveAspectRatio="xMidYMid meet">
<metadata>
Created by potrace 1.14, written by Peter Selinger 2001-2017
</metadata>
<g transform="translate(0.000000,700.000000) scale(0.100000,-0.100000)"
fill="#000000" stroke="none">
<path d="M2106 6929 c12 -217 60 -400 153 -589 224 -453 671 -765 1166 -815
27 -3 49 -6 50 -8 2 -1 -5 -41 -15 -88 -10 -47 -18 -132 -19 -189 -1 -57 -3
-105 -4 -106 -1 -1 -22 -5 -47 -8 -141 -20 -256 -56 -367 -116 -304 -164 -507
-473 -527 -805 -3 -44 -8 -123 -11 -175 -17 -274 -127 -549 -303 -758 -25 -29
-90 -99 -144 -155 -371 -379 -571 -857 -582 -1387 -4 -168 6 -285 35 -424 101
-484 406 -857 887 -1082 162 -76 365 -140 567 -178 80 -14 117 -19 270 -36 83
-9 530 -6 600 4 22 3 60 8 85 11 416 52 791 196 1065 410 215 168 387 399 473
635 11 30 27 74 36 97 9 24 14 43 11 43 -2 0 0 11 5 25 12 32 20 68 26 120 2
22 7 46 9 54 23 62 23 444 0 563 -3 13 -8 39 -11 58 -4 19 -9 44 -11 55 -3 11
-9 38 -13 60 -76 343 -279 701 -569 1000 -129 133 -223 263 -281 392 -17 37
-35 77 -40 88 -5 11 -20 56 -34 100 -22 72 -28 94 -40 160 -8 39 -17 152 -21
245 -4 101 -10 150 -26 215 -58 230 -193 437 -381 581 -103 80 -271 159 -381
179 l-39 8 5 126 c5 137 8 156 37 234 36 96 104 188 191 259 83 68 241 128
337 128 88 0 147 49 145 121 -2 80 -57 122 -156 118 -229 -9 -461 -127 -603
-306 -27 -34 -51 -62 -54 -62 -3 -1 -11 32 -19 72 -28 160 -126 397 -221 538
-262 384 -685 629 -1137 656 l-102 6 5 -74z"/>
</g>
</svg>
